# xmcd
#
# Track frame offsets: 
#        150
#        23166
#        40922
#        53418
#        73195
#        89844
#        103359
#        126495
#        145166
#        161320
#        185258
#        204001
#        224174
#        244611
#        258148
#        270125
#        294050
#
# Disc length: 4242 seconds
#
# Revision: 0
# Processed by: cddbd v1.5.2PL0 Copyright (c) Steve Scherf et al.
# Submitted via: ExactAudioCopyFreeDBPlugin 1.0
#
DISCID=f1109011
DTITLE=Le Freak - Saturdaynight At
DYEAR=1998
DGENRE=Club-House
TTITLE0=Clubtone Feat Oliver Cheatham - Put A Little Love In Your Hear
TTITLE0=t
TTITLE1=Cab N Crew - T Bells
TTITLE2=Syntone - Feeling
TTITLE3=Delegate Vs Emotrance - Want You To Stay
TTITLE4=Mark Van Dale With Enrico - Water Verve [DJ Quicksilver Mix]
TTITLE5=Instand Double - Pure Perfection
TTITLE6=Klubbheads - Kickin Hard [Marco V And Benjamin Mix]
TTITLE7=Lemon 8 - Model 8
TTITLE8=Uf - Remixed [Greenfields Pancake Mix]
TTITLE9=Keynote Feat Latasha - Carless Whisper [P n D Ethereal Mix]
TTITLE10=Greenfield - Violet Club Sandwich [Greenfields Late Nite Powe
TTITLE10=r Mix]
TTITLE11=DJ Jean - Madhouse
TTITLE12=DJ Disco - Stamp Yourr Feet
TTITLE13=IttyBitty BoozyWoozy And Greatski - Pumped Up Funk
TTITLE14=Untidy Dubs Vol 1 - Funky Groove
TTITLE15=Kay Tracid - Dance For Eternity
TTITLE16=Age Of Love - Age Of Love
EXTD=
EXTT0=
EXTT1=
EXTT2=
EXTT3=
EXTT4=
EXTT5=
EXTT6=
EXTT7=
EXTT8=
EXTT9=
EXTT10=
EXTT11=
EXTT12=
EXTT13=
EXTT14=
EXTT15=
EXTT16=
PLAYORDER=
